<?xml version="1.0" encoding="utf-8"?>
<!-- Generator: Adobe Illustrator 24.1.2, SVG Export Plug-In . SVG Version: 6.00 Build 0)  -->
<svg version="1.1" id="Layer_1" xmlns="http://www.w3.org/2000/svg" xmlns:xlink="http://www.w3.org/1999/xlink" x="0px" y="0px"
	 viewBox="0 0 206.32 119.21" style="enable-background:new 0 0 206.32 119.21;" xml:space="preserve">
<style type="text/css">
	.st0{fill:#FFFFFF;}
	.st1{fill:#D9DEE9;}
	.st2{fill:#010101;}
	.st3{fill:#E9DB62;}
</style>
<path class="st0" d="M163.91,88.16H8.47c-2.18,0-3.95-1.77-3.95-3.95V11.54c0-4.32,3.5-7.82,7.82-7.82h151.57
	c2.18,0,3.95,1.77,3.95,3.95v76.54C167.86,86.39,166.09,88.16,163.91,88.16z"/>
<g>
	<path class="st1" d="M109.95,45.08c0-8.93,0.01-17.87,0.01-26.8c0-2.69-1.31-4.06-4-4.2c-0.4-0.02-0.8-0.01-1.19-0.01
		c-23.99,0-47.97,0-71.96,0.01c-0.79,0-1.59,0.08-2.35,0.24c-1.91,0.42-2.82,1.58-2.82,3.57c-0.01,6.94,0,13.89,0,20.83
		c0,11.59,0.03,23.18-0.04,34.76c-0.01,1.4,0.41,1.77,1.72,1.65c1.05-0.1,2.12,0,3.18,0.02c-0.45,0.7-0.9,1.4-1.35,2.09
		c-1.42,0-2.83-0.02-4.25-0.01c-0.93,0.01-1.4-0.41-1.39-1.36c0-0.27,0-0.53,0-0.8c0-18.96,0-37.93,0-56.89
		c0-4.06,2.09-6.23,6.18-6.24c24.73-0.02,49.45-0.02,74.18,0c4.15,0,6.22,2.16,6.22,6.33c0,8.93,0,17.86,0.01,26.79
		C111.37,45.08,110.66,45.08,109.95,45.08z"/>
	<path class="st2" d="M118.69,119.16c-24.28,0.01-48.57,0.01-72.85,0.02c-7.03,0-14.07-0.01-21.1-0.02
		c-0.75-0.62-0.72-1.31-0.18-2.04c2.38,0,4.75,0,6.85,0c-0.21-1.91-0.54-3.72-0.58-5.53c-0.09-4.63-0.06-9.27-0.07-13.91
		c0-0.71,0-1.42,0-2.14c0-2.47,0-4.95,0-7.42c0-0.71,0-1.42-0.01-2.14c0.12-2.91,0.25-5.83,0.37-8.74c0.12-0.88,0.76-1.75,1.35-2.09
		c1.75-1.24,3.75-1.38,5.81-1.38c14.64,0.01,29.27-0.02,43.91,0.03c1.99,0.01,3.97,0.37,5.93,0.56c0-2.37,0-5.06,0-7.75
		c0-0.62,0-1.25,0-1.87c0-1.59,0-3.17,0-4.76c0-1.07,0-2.14,0-3.2c0.01-1.93,0.01-3.87,0.04-5.8c0.06-3.64,2.08-5.69,5.74-5.82
		c1.63-0.06,3.26-0.06,4.88-0.09c0.71,0,1.42,0,2.14-0.01c3.01,0,6.01,0,9.02,0c0.71,0,1.43,0,2.14,0c0.49,0.01,0.97,0.04,1.46,0.04
		c11.99,0,23.98,0,35.98,0c1.24,0,2.48-0.01,3.71,0.05c3.31,0.15,5.45,2.05,5.55,5.22c0.09,2.98-0.1,5.97-0.16,9.02
		c2.18,0,4.64,0,7.1,0c0.71,0,1.43,0,2.14,0.01c0.7,0,1.41,0,2.11,0c0.71,0,1.43,0,2.14,0c0.41-0.17,0.92-0.25,1.23-0.54
		c1.23-1.15,2.41-2.34,3.57-3.55c0.55-0.57,1.13-0.97,1.79-0.3c0.68,0.68,0.22,1.27-0.33,1.8c-0.95,0.92-1.82,1.94-2.84,2.79
		c-0.91,0.75-0.75,1.23,0.05,1.92c0.97,0.83,1.83,1.8,2.74,2.7c0.52,0.51,1.11,1.04,0.39,1.77c-0.76,0.78-1.34,0.21-1.89-0.35
		c-1.15-1.16-2.29-2.34-3.48-3.45c-0.31-0.29-0.8-0.39-1.21-0.57c-0.71,0-1.43,0-2.14,0c-0.7,0-1.41,0-2.11,0
		c-0.71,0-1.43,0-2.14,0.01c-2.47-0.02-4.95,0-7.42-0.06c-0.81-0.02-1.33,0.2-1.88,0.86c-2.14,2.56-4.83,4.01-8.28,3.95
		c-3.53-0.07-7.07-0.02-10.6-0.01c-8.48,0.01-16.97,0.03-25.45,0.04c-0.71,0-1.43,0-2.14,0l-0.51-0.01c0,0,0.02,6.06,0.03,8.72
		c0,0.71,0,1.42,0,2.14c0,2.91,0,5.83,0,8.74c0,0.71,0,1.42-0.01,2.14c0,2.47,0,4.95,0,7.42c0,0.71,0,1.42,0,2.14
		c-0.01,4.55,0.02,9.1-0.07,13.65c-0.04,1.9-0.36,3.79-0.55,5.77c3.14,0,6.58,0,10.03,0C119.44,117.85,119.48,118.54,118.69,119.16z
		 M52.1,95.54c-0.11,2.13-0.11,2.13,1.92,2.13c4.36,0,8.71,0,13.07,0c2.03,0,2.03,0,1.92-2.13c-0.05-0.38-0.04-0.44-0.6-0.5
		c-5.23-0.03-10.47-0.03-15.7,0C52.12,95.02,52.14,95.23,52.1,95.54z M100.36,65.25c0.19-1.23,1.15-1.01,1.96-1.01
		c15.39-0.01,30.79,0,46.18-0.01c2.85,0,5.08-1.25,6.65-3.64c1.11-1.46,1.56-3.13,1.55-4.94c-0.01-1.46,0.01-2.92,0-4.38
		c-0.02-2.52-1.26-3.81-3.8-3.97c-0.57-0.03-1.15-0.04-1.72-0.04c-9.16,0-18.32,0-27.49,0c-9.47,0-18.94-0.01-28.42,0.01
		c-3.89,0.01-4.97,1.11-4.97,4.97c0,16.72,0,33.44,0,50.16c0,0.31,0.11,0.68-0.02,0.92c-0.27,0.47-0.68,0.86-1.03,1.28
		c-0.36-0.41-0.87-0.76-1.03-1.23c-0.18-0.51-0.04-1.14-0.04-1.71c0-1.83,0-1.83-1.78-1.83c-14.74,0-29.48,0-44.22,0
		c-0.79,0-1.75,0.15-1.79-1.02c-0.04-1.31,1.01-1.09,1.82-1.1c2.21-0.02,4.43-0.05,6.64,0.01c0.86,0.02,1.11-0.21,1.1-1.09
		c-0.05-3.1-0.02-6.19-0.02-9.29c0-0.72,0.07-1.34,1.04-1.33c0.91,0.01,1.09,0.56,1.09,1.31c0,1.42,0.07,2.84-0.03,4.24
		c-0.08,1.08,0.21,1.39,1.35,1.39c8.59-0.05,17.17-0.03,25.76-0.03c0.8,0,1.62,0.06,1.57,1.11c-0.04,0.93-0.78,1.02-1.55,1.02
		c-2.3-0.02-4.61,0.08-6.9-0.04c-1.22-0.06-1.09,0.6-1.09,1.36c0,0.78-0.11,1.38,1.1,1.36c4.91-0.08,9.83-0.07,14.74,0
		c1.06,0.01,1.2-0.34,1.19-1.27c-0.04-5.35-0.02-10.7-0.02-16.06c0-3.14-1.12-4.31-4.27-4.45c-0.44-0.02-0.88-0.02-1.33-0.02
		c-10.58,0-21.16,0-31.74,0c-4.6,0-9.21-0.03-13.81,0.05c-2.9,0.05-4.1,1.35-4.1,4.19c0,10.84,0,21.67,0,32.51
		c0,3.15,1.26,4.38,4.44,4.38c21.78,0,43.55,0,65.33,0c3.42,0,4.59-1.18,4.59-4.64c0-11.28,0-22.56,0-33.84
		c0-3.72-0.03-7.43,0.02-11.15c0.01-0.87-0.23-1.13-1.1-1.09c-1.5,0.07-3.01,0-4.51,0.03C100.92,66.37,100.45,66.05,100.36,65.25z"
		/>
	<path class="st1" d="M172.11,59.41c-0.71,0-1.43,0-2.14,0c0-18.13,0-36.26,0.01-54.39c0-0.31,0.02-0.62-0.03-0.93
		c-0.23-1.42-0.87-1.96-2.32-1.96c-54.39,0-108.77,0-163.16,0c-1.62,0-2.05,0.35-2.31,1.92C2.09,4.48,2.13,4.93,2.13,5.37
		c0,28.97,0,57.93,0,86.9c0,0.44-0.03,0.89,0.03,1.32c0.22,1.41,0.87,1.96,2.32,1.96c8.76,0,17.52,0,26.29-0.01
		c0,0.71,0,1.42,0,2.14c-8.76,0-17.53-0.06-26.29,0.02C1.46,97.73,0.27,96.13,0,93.47c-0.02-0.18,0-0.35,0-0.53c0-29.5,0-59,0-88.5
		c0-2.36,1.11-3.92,3.1-4.35C3.65-0.03,4.24,0,4.81,0c54.17,0,108.34,0,162.51,0c3.34,0,4.78,1.46,4.78,4.88c0,7.87,0,15.74,0,23.62
		C172.1,38.8,172.11,49.11,172.11,59.41z"/>
	<path class="st1" d="M109.47,97.68c0-0.71,0-1.42,0-2.14c19.21,0,38.41,0,57.62,0.01c2.26,0,2.89-0.61,2.89-2.88
		c0-10.35,0-20.7,0-31.05c0.71,0,1.43,0,2.14,0c0,10.48,0.03,20.96-0.05,31.44c-0.01,1.06-0.56,2.16-1.04,3.16
		c-0.55,1.16-1.64,1.47-2.88,1.46c-6.81-0.02-13.63-0.01-20.44-0.01C134.95,97.68,122.21,97.68,109.47,97.68z"/>
	<path class="st1" d="M200.25,61.84c-1.5,0-3,0-4.5,0c-0.86,0-1.55-0.34-1.56-1.24c-0.01-0.92,0.63-1.4,1.56-1.41c3-0.01,6-0.01,9,0
		c0.93,0,1.57,0.49,1.56,1.41c-0.01,0.9-0.7,1.24-1.56,1.24C203.25,61.84,201.75,61.84,200.25,61.84z"/>
	<path class="st1" d="M130.78,117.15c3.88-0.03,7.76-0.1,11.64-0.05c0.42,0.01,0.83,0.67,1.25,1.02c-0.47,0.35-0.93,0.99-1.41,1
		c-3.88,0.07-7.76,0.03-11.64,0.02C131.33,118.53,131.4,117.87,130.78,117.15z"/>
	<path class="st1" d="M190.7,52.48c-0.44-0.35-0.99-0.58-1.11-0.94c-0.13-0.4-0.05-1.09,0.23-1.38c1.53-1.64,3.12-3.25,4.78-4.77
		c0.32-0.3,1.15-0.38,1.56-0.18c0.74,0.35,0.84,1.09,0.35,1.8c-0.25,0.36-0.56,0.68-0.87,0.99c-1.15,1.16-2.29,2.33-3.47,3.45
		C191.77,51.83,191.26,52.09,190.7,52.48z"/>
	<path class="st1" d="M196.97,74.92c-0.34,0.4-0.61,1.01-0.93,1.05c-0.58,0.06-1.36-0.05-1.77-0.41c-1.48-1.32-2.84-2.77-4.24-4.18
		c-0.15-0.15-0.28-0.34-0.4-0.53c-0.48-0.74-0.3-1.46,0.42-1.79c0.41-0.19,1.22-0.06,1.56,0.25c1.62,1.49,3.16,3.08,4.7,4.65
		C196.55,74.2,196.7,74.52,196.97,74.92z"/>
	<path class="st1" d="M150.6,119.17c-0.93,0-1.87,0.12-2.77-0.05c-0.46-0.09-0.81-0.69-1.22-1.06c0.39-0.34,0.77-0.94,1.18-0.96
		c1.84-0.11,3.7-0.11,5.54,0c0.42,0.03,0.81,0.69,1.21,1.06c-0.39,0.34-0.75,0.89-1.19,0.96
		C152.47,119.28,151.53,119.17,150.6,119.17z"/>
	<path class="st2" d="M130.78,117.15c0.61,0.72,0.55,1.38-0.17,2c-1.92,0-3.83,0.01-5.75,0.01c-0.75-0.62-0.72-1.31-0.17-2.04
		C126.72,117.13,128.75,117.14,130.78,117.15z"/>
	<path class="st1" d="M13.75,119.16c-0.62,0-1.27,0.13-1.83-0.04c-0.4-0.12-0.94-0.65-0.94-1s0.56-0.97,0.91-1.01
		c1.35-0.12,2.73-0.12,4.08,0c0.36,0.03,0.93,0.64,0.93,0.99s-0.53,0.92-0.92,1.01C15.27,119.28,14.5,119.16,13.75,119.16z"/>
	<path class="st1" d="M124.69,117.11c-0.55,0.73-0.57,1.42,0.17,2.04c-2.06,0-4.12,0-6.18,0c0.79-0.62,0.76-1.31,0.18-2.05
		C120.81,117.11,122.75,117.11,124.69,117.11z"/>
	<path class="st1" d="M24.57,117.11c-0.55,0.73-0.57,1.42,0.18,2.04c-1.24,0.01-2.48,0.01-3.72,0.02c-0.84,0.01-1.37-0.34-1.36-1.24
		c0.01-0.91,0.68-0.89,1.32-0.88C22.18,117.07,23.37,117.09,24.57,117.11z"/>
	<path class="st1" d="M159.39,116.97c0.44,0.1,1.09,0.06,1.32,0.35c0.27,0.34,0.16,0.96,0.22,1.46c-0.99,0.01-1.98,0.02-2.97,0.03
		c0.04-0.53-0.06-1.13,0.16-1.55C158.25,117.02,158.91,117.06,159.39,116.97z"/>
	<path class="st3" d="M100.36,65.25c0.09,0.81,0.56,1.13,1.35,1.11c1.5-0.02,3.01,0.04,4.51-0.03c0.87-0.04,1.11,0.22,1.1,1.09
		c-0.05,3.71-0.02,7.43-0.02,11.15c0,11.28,0,22.56,0,33.84c0,3.46-1.17,4.64-4.59,4.64c-21.78,0-43.55,0-65.33,0
		c-3.18,0-4.44-1.23-4.44-4.38c-0.01-10.84,0-21.67,0-32.51c0-2.84,1.2-4.14,4.1-4.19c4.6-0.08,9.21-0.05,13.81-0.05
		c10.58,0,21.16,0,31.74,0c0.44,0,0.89,0,1.33,0.02c3.14,0.14,4.27,1.31,4.27,4.45c0,5.35-0.02,10.7,0.02,16.06
		c0.01,0.93-0.13,1.28-1.19,1.27c-4.91-0.07-9.83-0.08-14.74,0c-1.21,0.02-1.1-0.58-1.1-1.36c0-0.77-0.13-1.42,1.09-1.36
		c2.3,0.12,4.6,0.02,6.9,0.04c0.77,0.01,1.51-0.09,1.55-1.02c0.05-1.06-0.77-1.11-1.57-1.11c-8.59,0-17.17-0.02-25.76,0.03
		c-1.13,0.01-1.42-0.3-1.35-1.39c0.1-1.41,0.02-2.83,0.03-4.24c0-0.75-0.18-1.3-1.09-1.31c-0.97-0.01-1.04,0.61-1.04,1.33
		c0,3.1-0.03,6.19,0.02,9.29c0.02,0.88-0.23,1.11-1.1,1.09c-2.21-0.06-4.43-0.03-6.64-0.01c-0.81,0.01-1.86-0.21-1.82,1.1
		c0.04,1.17,1,1.02,1.79,1.02c14.74,0,29.48,0,44.22,0c1.78,0,1.78,0,1.78,1.83c0,0.58-0.14,1.2,0.04,1.71
		c0.17,0.47,0.67,0.83,1.03,1.23c0.35-0.42,0.76-0.81,1.03-1.28c0.13-0.23,0.02-0.61,0.02-0.92c0-16.72,0-33.44,0-50.16
		c0-3.86,1.07-4.96,4.97-4.97c9.47-0.02,18.94-0.01,28.42-0.01c9.16,0,18.32,0,27.49,0c0.57,0,1.15,0.01,1.72,0.04
		c2.54,0.15,3.78,1.45,3.8,3.97c0.01,1.46-0.01,2.92,0,4.38c0.01,1.81-0.44,3.48-1.55,4.94c-0.26-0.01-0.53-0.04-0.79-0.04
		c-18.8,0-37.6,0-56.4,0c-0.13,0-0.27,0.01-0.4,0c-0.74-0.09-0.88,0.31-0.87,0.95C96.72,63.57,98.18,65.09,100.36,65.25z M151.6,51
		c-1.42,0.02-2.32,0.92-2.34,2.32c-0.01,1.38,1.04,2.43,2.42,2.41c1.29-0.01,2.35-1.07,2.36-2.36
		C154.06,51.99,153.02,50.98,151.6,51z M92.01,107.15c-0.39,0.26-0.98,0.46-1.02,0.75c-0.07,0.44,0.09,1.08,0.4,1.39
		c1.36,1.38,2.82,2.68,4.23,4.02c0.59,0.56,1.32,0.85,1.79,0.09c0.22-0.36-0.02-1.29-0.36-1.65c-1.34-1.41-2.8-2.69-4.23-4.01
		C92.59,107.52,92.33,107.38,92.01,107.15z"/>
	<path class="st1" d="M30.77,88.13c-7.35,0-14.69-0.01-22.04-0.01c-2.6,0-4.1-1.44-4.21-4.06c-0.01-0.26,0-0.53,0-0.8
		c0-24.99,0-49.97,0-74.96c0-3.21,1.37-4.58,4.62-4.58c51.37,0,102.75,0,154.12,0c3.23,0,4.59,1.38,4.59,4.61
		c0,17.03,0.01,34.05,0.01,51.08c-0.71,0-1.43,0-2.14-0.01c0-16.63,0-33.26,0-49.89c0-3.29-0.38-3.67-3.62-3.67
		c-15.53,0-31.07,0-46.6,0c-35.01,0-70.01,0-105.02,0c-0.4,0-0.8-0.02-1.19,0c-2.06,0.11-2.64,0.71-2.64,2.8
		c0,24.94,0,49.89,0,74.83c0,1.83,0.71,2.51,2.61,2.51c7.17,0,14.34,0,21.51,0C30.76,86.7,30.77,87.41,30.77,88.13z"/>
	<path class="st1" d="M98.8,45.08c-0.81-2.59-1.52-5.22-2.47-7.76c-0.64-1.72-1.61-3.33-2.46-4.97c-1.32-2.54-4-3.02-6.13-4.33
		c-0.07,0.11-0.14,0.22-0.21,0.32c1.01,0.67,2.03,1.34,3.05,2.01c0.59,0.39,1.45,0.8,0.9,1.58c-0.24,0.34-1.27,0.35-1.85,0.19
		c-3.25-0.94-6.45-2.05-9.71-2.94c-1.38-0.38-2.87-0.46-4.31-0.49c-3.54-0.07-7.08-0.05-10.62-0.02c-4.69,0.04-9.14,1.23-13.44,3.04
		c-0.53,0.22-1.05,0.52-1.6,0.61c-0.37,0.06-1.07-0.1-1.14-0.3c-0.11-0.37,0.02-1.01,0.29-1.24c0.76-0.66,1.65-1.17,2.5-1.72
		c0.36-0.23,0.75-0.42,1.12-0.64c-0.05-0.11-0.11-0.23-0.16-0.34c-1.37,0.67-2.85,1.19-4.07,2.07c-1.02,0.74-1.92,1.81-2.55,2.92
		c-3.03,5.3-5,10.99-5.76,17.04c-0.32,2.53-0.25,5.1-0.31,7.66c-0.01,0.39,0.17,0.88,0.43,1.18c3.76,4.38,8.66,6.07,14.28,5.75
		c0.78-0.05,1.51-1.14,2.04-1.57c-2.24-1.71-4.37-3.32-6.48-4.95c-0.27-0.21-0.56-0.5-0.66-0.81c-0.12-0.37-0.21-0.99-0.01-1.16
		c0.28-0.24,0.9-0.33,1.24-0.18c1.57,0.7,3.05,1.61,4.63,2.26c3.94,1.63,8.06,2.48,12.34,2.52c4.33,0.04,8.67,0.16,12.86-1.11
		c2.6-0.79,5.09-1.92,7.63-2.9c0,1.07,0,2.14,0,3.2c-1.33,0.76-2.67,1.5-3.97,2.3c-0.23,0.14-0.49,0.69-0.42,0.77
		c0.79,0.88,1.41,2.07,2.94,1.72c0.46-0.1,0.96-0.02,1.45-0.02c0,0.62,0,1.25,0,1.87c-2.54,0.38-4.68-0.17-6.08-2.53
		c-0.41-0.69-0.84-1.38-1.34-2.01c-0.16-0.2-0.6-0.28-0.9-0.25c-3.5,0.33-6.99,0.96-10.49,0.98c-3.27,0.02-6.54-0.61-9.69-0.94
		c-0.26,0.47-0.56,1.09-0.93,1.67c-2.27,3.58-5.67,3.53-9.21,2.76c-4.54-0.98-8.39-3.13-11.23-6.93c-0.98-1.31-0.58-2.75-0.47-4.08
		c0.27-3.23,0.69-6.46,1.28-9.65c0.9-4.86,2.97-9.29,5.23-13.66c1.12-2.16,2.89-3.37,4.9-4.41c3.56-1.83,7.35-2.93,11.32-3.44
		c1.59-0.2,2.47,0.64,2.89,1.93c0.26,0.83,0.71,0.71,1.28,0.71c3.61-0.01,7.22-0.02,10.82,0c0.65,0,1.1,0.08,1.34-0.8
		c0.37-1.42,1.55-2.05,3.12-1.8c4.92,0.77,9.62,2.18,13.75,5.1c0.49,0.35,0.98,0.78,1.28,1.29c2.64,4.56,4.77,9.35,5.95,14.51
		C100.22,45.08,99.51,45.08,98.8,45.08z M86.93,27.97c-0.03-0.01-0.06-0.02-0.09-0.04c0,0.05-0.01,0.09-0.01,0.14
		c0.03-0.01,0.07,0,0.1-0.02C86.93,28.03,86.93,27.99,86.93,27.97z"/>
	<path class="st1" d="M100.36,65.25c-2.17-0.16-3.63-1.68-3.66-3.76c-0.01-0.64,0.13-1.04,0.87-0.95c0.13,0.02,0.27,0,0.4,0
		c18.8,0,37.6,0,56.4,0c0.26,0,0.53,0.03,0.79,0.04c-1.57,2.39-3.8,3.64-6.65,3.64c-15.39,0.02-30.79,0.01-46.18,0.01
		C101.51,64.24,100.55,64.02,100.36,65.25z"/>
	<path class="st1" d="M167.86,61.62c0,7.25-0.03,14.51,0,21.76c0.01,2.9-1.45,4.8-4.75,4.78c-17.88-0.1-35.77-0.04-53.65-0.04
		c0-0.71,0-1.42,0.01-2.14c17.83,0,35.66,0,53.48,0c2.13,0,2.77-0.63,2.77-2.75c0-7.21,0-14.41,0-21.62
		C166.43,61.62,167.15,61.62,167.86,61.62z"/>
	<path class="st1" d="M69.01,95.54c0.11,2.13,0.11,2.13-1.92,2.13c-4.36,0-8.71,0-13.07,0c-2.03,0-2.03,0-1.92-2.13
		C57.74,95.54,63.37,95.54,69.01,95.54z"/>
	<path class="st1" d="M112.09,66.4c0,2.73-0.01,5.47-0.01,8.2c0,2.63,0,2.63-2.61,2.65c0-0.71,0-1.42,0-2.14
		c0.16-0.39,0.46-0.78,0.47-1.18c0.04-2.51,0.02-5.02,0.02-7.53C110.66,66.4,111.37,66.4,112.09,66.4z"/>
	<path class="st2" d="M151.6,51c1.42-0.02,2.46,0.99,2.44,2.37c-0.01,1.29-1.07,2.35-2.36,2.36c-1.38,0.02-2.43-1.03-2.42-2.41
		C149.28,51.93,150.18,51.02,151.6,51z"/>
	<path class="st2" d="M92.01,107.15c0.32,0.23,0.59,0.38,0.8,0.57c1.43,1.32,2.89,2.61,4.23,4.01c0.35,0.37,0.58,1.29,0.36,1.65
		c-0.47,0.76-1.2,0.47-1.79-0.09c-1.41-1.34-2.87-2.63-4.23-4.02c-0.31-0.31-0.47-0.95-0.4-1.39
		C91.03,107.61,91.62,107.41,92.01,107.15z"/>
	<path class="st1" d="M102.24,18.32c-0.1,0.9-0.64,1.51-1.68,1.57c-0.99,0.05-1.82-0.76-1.74-1.74c0.08-1.04,0.75-1.57,1.74-1.64
		C101.4,16.46,102.25,17.37,102.24,18.32z"/>
	<path class="st1" d="M103.57,18.15c-0.07-1.07,0.62-1.63,1.58-1.63c0.96-0.01,1.62,0.52,1.63,1.65c0.01,1.12-0.63,1.68-1.59,1.69
		C104.23,19.86,103.54,19.32,103.57,18.15z"/>
	<path class="st1" d="M97.48,18.23c0.08,1.03-0.6,1.6-1.56,1.62c-0.95,0.02-1.63-0.5-1.65-1.63c-0.02-1.12,0.61-1.69,1.57-1.71
		C96.8,16.49,97.5,17.02,97.48,18.23z"/>
	<path class="st1" d="M60.3,42.73c3.12-0.46,6.15,3.02,6.1,5.98c-0.05,3.54-2.76,6.25-6.35,6.23c-3.18-0.02-6.09-2.39-6.07-6.19
		C54.01,45.44,56.44,42.46,60.3,42.73z M56.03,48.75c0,2.44,1.81,4.34,4.14,4.34c2.52,0,4.2-1.76,4.34-4.38
		c0.12-2.2-1.96-4.11-4.27-4.12C57.6,44.58,56.03,46.14,56.03,48.75z"/>
	<path class="st1" d="M80.03,42.73c3.34-0.46,6.11,3.09,6.12,6.03c0,3.18-3.16,6.4-6.24,6.23c-3.46-0.2-6.08-2.75-6.08-6.32
		C73.84,45.24,76.46,42.73,80.03,42.73z M80.1,44.59c-2.55,0-4.38,1.75-4.4,4.2c-0.02,2.46,1.85,4.3,4.36,4.3
		c2.29,0,4.14-1.88,4.14-4.22C84.2,46.22,82.64,44.59,80.1,44.59z"/>
</g>
<path class="st2" d="M30.85,76.5"/>
</svg>
