<?xml version="1.0" encoding="utf-8"?>
<!-- Svg Vector Icons : http://www.onlinewebfonts.com/icon -->
<!DOCTYPE svg PUBLIC "-//W3C//DTD SVG 1.1//EN" "http://www.w3.org/Graphics/SVG/1.1/DTD/svg11.dtd">
<svg version="1.1" xmlns="http://www.w3.org/2000/svg" xmlns:xlink="http://www.w3.org/1999/xlink" x="0px" y="0px" viewBox="0 0 1000 1000" enable-background="new 0 0 1000 1000" xml:space="preserve">
<metadata> Svg Vector Icons : http://www.onlinewebfonts.com/icon </metadata>
<g><g transform="translate(0.000000,512.000000) scale(0.100000,-0.100000)"><path d="M4755.2,4846.7c-455.2-424.6-1126.6-770.8-1859.2-954.4c-403.6-101.4-753.6-149.2-1237.5-170.2c-315.6-13.4-315.6-13.4-361.5-65l-45.9-53.6V1897.3c0-983.1,7.7-1796.1,19.1-1916.6c118.6-1315.9,635-2484.6,1491.9-3381.7c275.4-286.9,531.7-503,870.3-730.7c403.6-271.6,812.9-472.5,1228-604.4l139.6-44l137.7,44c675.2,214.2,1379.1,636.9,1920.4,1155.3c956.4,908.5,1555.1,2186.2,1671.7,3561.5c11.5,132,19.1,943,19.1,1926.1v1696.6L8703,3657l-45.9,51.6l-334.7,15.3c-1275.8,51.6-2389,462.9-3106.3,1147.6C5005.7,5074.4,4998.1,5072.4,4755.2,4846.7z M5139.6,4502.5c749.8-633.1,1870.6-1038.6,3043.1-1099.8l242.9-13.4l-7.6-1723.4c-5.7-1478.5-11.5-1754-38.3-1931.9c-149.2-985-457.1-1746.3-1002.3-2477c-218-290.7-658-730.6-956.4-954.4c-399.7-298.4-830.1-533.7-1233.7-675.2l-187.5-65l-185.5,63.1c-394,133.9-864.5,395.9-1273.9,705.8c-248.7,189.3-707.7,648.4-897.1,897.1C2104.1-2060.1,1779-1285.5,1629.8-344.4c-40.2,260.1-42.1,323.2-47.8,2000.7l-7.7,1732.9l237.2,13.4c816.7,42.1,1623.9,252.5,2270.4,589.1c265.9,137.7,592.9,353.9,774.7,508.8c74.6,63.1,135.8,116.7,139.6,116.7C4998.1,4619.1,5063.1,4567.5,5139.6,4502.5z"/><path d="M4753.3,3615c-635-395.9-1323.6-646.5-2153.7-784.2c-254.4-42.1-292.6-53.6-329-95.6l-44-49.7V1476.5c0-1423.1,11.5-1610.5,133.9-2126.9c264-1109.4,916.2-2069.6,1815.2-2670.2c235.3-156.8,749.8-418.9,824.4-418.9c74.6,0,589.1,262,826.3,420.8c445.7,298.4,855,709.6,1162.9,1172.5c292.6,438,545.1,1025.2,658,1530.2c112.8,495.4,112.8,508.8,120.5,1956.7l7.6,1340.8l-44,51.6c-40.2,44-76.5,55.5-340.5,99.5c-826.3,137.7-1511.1,388.3-2144.2,782.3c-109,68.9-220,124.3-246.7,124.3C4973.2,3739.3,4862.3,3683.8,4753.3,3615z M5198.9,3263c614-357.7,1319.8-612.1,2054.3-740.2l195.1-32.5V1403.8c0-596.8-9.6-1197.4-21-1331.3c-122.4-1480.4-954.5-2744.8-2220.7-3374L5000-3404.7l-204.7,103.3C3730-2773.5,2957.2-1784.7,2676-593c-109,457.1-110.9,499.2-118.6,1836.2l-7.7,1243.3l311.8,61.2c700,135.8,1329.3,365.3,1885.9,686.7c133.9,76.5,246.8,139.6,250.6,141.5C5001.9,3375.9,5093.7,3326.1,5198.9,3263z"/><path d="M4760.9,1713.7c-133.9-47.8-214.2-101.4-330.9-216.1c-292.7-290.7-317.5-732.6-57.4-1067.3l66.9-84.2L4233-478.3c-114.8-451.4-208.5-847.3-208.5-876c0-32.5,19.1-72.7,47.8-99.5l45.9-47.8H5000h881.8l45.9,47.8c28.7,26.8,47.8,66.9,47.8,99.5c0,28.7-93.7,424.6-208.5,876l-206.6,824.4l66.9,84.2c189.4,244.8,231.4,568.1,109,835.9c-53.6,118.6-227.6,309.9-342.4,376.8C5210.4,1750,4946.4,1778.7,4760.9,1713.7z M5176,1401.9c107.1-30.6,235.3-151.1,275.4-256.3c76.5-198.9,28.7-430.4-116.7-558.5c-145.4-128.2-151.1-72.7,72.7-965.9l200.8-797.6H5000h-608.2l200.8,797.6c223.8,893.2,218,837.8,72.7,965.9c-206.6,181.7-204.7,548.9,5.7,723c42.1,36.3,105.2,76.5,139.6,88C4894.8,1428.7,5080.3,1430.6,5176,1401.9z"/></g></g>
</svg>