<?xml version="1.0" encoding="utf-8"?>
<!-- Generator: Adobe Illustrator 24.1.3, SVG Export Plug-In . SVG Version: 6.00 Build 0)  -->
<svg version="1.1" id="Layer_1" xmlns="http://www.w3.org/2000/svg" xmlns:xlink="http://www.w3.org/1999/xlink" x="0px" y="0px"
	 viewBox="0 0 384 90.4" style="enable-background:new 0 0 384 90.4;" xml:space="preserve">
<style type="text/css">
	.st0{fill:none;}
	.st1{opacity:0.4;enable-background:new    ;}
	.st2{fill:#FFFFFF;}
	.st3{fill:#4A4A4A;}
	.st4{fill:#C2C1BE;}
	.st5{fill:#7289DA;}
	.st6{fill:none;stroke:#FF0000;stroke-width:5;stroke-linecap:round;stroke-linejoin:round;}
</style>
<polyline class="st0" points="1415,-120.8 1458.4,376.2 -539.6,551 -583.1,54.1 "/>
<g>
	<rect class="st1" width="385" height="90.4"/>
</g>
<path class="st0" d="M9.9,0.5v79.3c0,0.1,0.2,0.3,0.6,0.3c0.5,0.1,0.9,0.2,1.4,0.2H373c0.5,0,0.9,0,1.4-0.2c0.4-0.1,0.6-0.2,0.6-0.3
	V0.5c0-0.1-0.2-0.2-0.6-0.3C374,0,373.5,0,373,0H11.9c-0.5,0-0.9,0-1.4,0.1C10.1,0.2,9.9,0.4,9.9,0.5z"/>
<path class="st2" d="M8.9,80.8V0.5c0-0.1,0.1-0.1,0.2-0.2c0.1-0.1,0.3-0.1,0.4-0.2C9.7,0.1,9.9,0,10.1,0c0.3,0,0.5,0,0.8,0H374
	c0.3,0,0.5,0,0.8,0c0.2,0,0.4,0.1,0.6,0.1c0.1,0,0.3,0.1,0.4,0.2s0.1,0.1,0.1,0.2v80.3c0,0.1,0,0.1-0.1,0.2s-0.3,0.1-0.4,0.2
	c-0.2,0.1-0.4,0.1-0.6,0.1s-0.5,0-0.8,0H10.9c-0.3,0-0.5,0-0.8,0c-0.2,0-0.4-0.1-0.6-0.1c-0.1,0-0.3-0.1-0.4-0.2
	C9,81,8.9,80.9,8.9,80.8z"/>
<path class="st3" d="M26,14.1c-0.8,0.3-1.6,0.4-2.5,0.4c-1.1,0.1-2.2-0.3-3-1.1s-1.2-1.9-1.1-3c-0.1-2.2,1.6-4.1,3.8-4.2
	c0.2,0,0.4,0,0.6,0c0.7,0,1.4,0.1,2,0.4l-0.3,0.8c-0.6-0.2-1.2-0.4-1.8-0.3c-1.7,0-3.2,1.2-3.3,2.9c0,0.2,0,0.3,0,0.5
	c-0.1,1.7,1.1,3.1,2.7,3.2c0.1,0,0.2,0,0.4,0c0.5,0,0.9,0,1.4-0.2v-2.4h-1.6v-0.8H26V14.1z"/>
<path class="st3" d="M31.1,14.5L31,13.8l0,0c-0.4,0.6-1.1,0.9-1.8,0.9c-0.9,0.1-1.7-0.6-1.8-1.5v-0.1c0-1.4,1.3-2.2,3.5-2.1v-0.1
	c0.1-0.6-0.3-1.3-1-1.4c-0.1,0-0.2,0-0.3,0c-0.5,0-1.1,0.1-1.5,0.4l-0.2-0.7c0.6-0.3,1.2-0.5,1.9-0.5c1.8,0,2.2,1.2,2.2,2.4v2.2
	c0,0.5,0,0.9,0.1,1.4L31.1,14.5z M30.9,11.5c-1.1,0-2.5,0.2-2.5,1.3c0,0.5,0.4,1,0.9,1h0.1c0.6,0,1.2-0.4,1.4-1
	c0-0.1,0.1-0.2,0.1-0.3V11.5z"/>
<path class="st3" d="M34.9,10.3c0-0.6,0-1.1,0-1.6h0.9v0.9l0,0c0.4-0.7,1.1-1.1,1.9-1.1c0.7,0,1.4,0.5,1.6,1.2l0,0
	C39.5,9.4,39.7,9.2,40,9c0.4-0.3,0.8-0.4,1.3-0.4c0.8,0,1.9,0.5,1.9,2.5v3.4h-1v-3.3c0-1.1-0.4-1.8-1.3-1.8c-0.6,0-1.1,0.4-1.3,1
	c0,0.2-0.1,0.3-0.1,0.5v3.6h-1V11c0-0.9-0.4-1.6-1.2-1.6c-0.6,0-1.1,0.5-1.3,1.1c0,0.1,0,0.3,0,0.5v3.5h-1L34.9,10.3z"/>
<path class="st3" d="M46.8,11.8c-0.1,1,0.7,1.9,1.7,2c0.1,0,0.2,0,0.3,0c0.5,0,1.1-0.1,1.6-0.3l0.2,0.8c-0.6,0.3-1.3,0.4-1.9,0.4
	c-1.5,0.1-2.8-1-2.9-2.5c0-0.1,0-0.3,0-0.4c0-1.7,1-3.1,2.7-3.1c1.4,0,2.4,1.1,2.4,2.5c0,0.1,0,0.2,0,0.2c0,0.2,0,0.3,0,0.5
	L46.8,11.8z M49.9,11c0.1-0.8-0.5-1.6-1.3-1.7c-0.1,0-0.1,0-0.2,0c-0.9,0.1-1.6,0.8-1.6,1.7H49.9z"/>
<path class="st3" d="M55.5,13.2c0.6,0.3,1.2,0.5,1.9,0.5c1.1,0,1.7-0.6,1.7-1.4s-0.4-1.2-1.5-1.6c-1.3-0.5-2.1-1.1-2.1-2.3
	c0.1-1.3,1.2-2.3,2.4-2.2c0.1,0,0.1,0,0.2,0c0.6,0,1.2,0.1,1.8,0.4l-0.3,0.8c-0.5-0.3-1-0.4-1.5-0.4c-1.1,0-1.5,0.7-1.5,1.2
	c0,0.8,0.5,1.1,1.6,1.6c1.4,0.5,2.1,1.2,2.1,2.4s-0.9,2.3-2.8,2.3c-0.7,0-1.4-0.2-2.1-0.5L55.5,13.2z"/>
<path class="st3" d="M68.5,11.6c0.1,1.6-1,2.9-2.6,3.1c-0.1,0-0.2,0-0.3,0c-1.5,0-2.8-1.2-2.8-2.7c0-0.1,0-0.2,0-0.3
	c-0.1-1.6,1-2.9,2.6-3.1c0.1,0,0.2,0,0.3,0c1.5,0,2.8,1.2,2.8,2.7C68.5,11.4,68.5,11.5,68.5,11.6z M63.9,11.6c0,1.3,0.7,2.2,1.8,2.2
	s1.8-0.9,1.8-2.3c0-1-0.5-2.2-1.7-2.2S63.9,10.5,63.9,11.6z"/>
<path class="st3" d="M74.1,14.3c-0.5,0.2-1.1,0.3-1.7,0.3c-1.5,0.1-2.8-1.1-2.8-2.7c0-0.1,0-0.2,0-0.3c-0.1-1.6,1.2-3,2.8-3.1
	c0.1,0,0.2,0,0.3,0c0.5,0,1,0.1,1.5,0.3L74,9.7c-0.4-0.2-0.8-0.3-1.2-0.3c-1.1,0-2,0.9-2,2c0,0.1,0,0.1,0,0.2
	c-0.1,1.1,0.7,2.1,1.8,2.2c0.1,0,0.1,0,0.2,0c0.4,0,0.9-0.1,1.3-0.3L74.1,14.3z"/>
<path class="st3" d="M77.5,7.1c0,0.3-0.2,0.6-0.6,0.7h-0.1c-0.4,0-0.7-0.3-0.7-0.7s0.3-0.7,0.7-0.7S77.5,6.6,77.5,7.1
	C77.5,7,77.5,7,77.5,7.1z M76.4,14.5V8.7h1v5.8H76.4z"/>
<path class="st3" d="M83.5,14.5l-0.1-0.7l0,0c-0.4,0.6-1.1,0.9-1.8,0.9c-0.9,0.1-1.7-0.6-1.8-1.5v-0.1c0-1.4,1.2-2.2,3.5-2.1v-0.1
	c0.1-0.7-0.4-1.3-1-1.3c-0.1,0-0.2,0-0.3,0c-0.5,0-1.1,0.1-1.5,0.4l-0.2-0.7c0.6-0.3,1.2-0.5,1.9-0.5c1.8,0,2.2,1.2,2.2,2.4v2.1
	c0,0.5,0,0.9,0.1,1.4L83.5,14.5z M83.3,11.5c-1.2,0-2.4,0.2-2.4,1.3c0,0.5,0.3,1,0.9,1h0.1c0.6,0,1.2-0.4,1.4-1
	c0-0.1,0.1-0.2,0.1-0.3L83.3,11.5z"/>
<path class="st3" d="M87.3,6h1.1v8.5h-1.1V6z"/>
<rect x="18.9" y="32.4" class="st4" width="347.1" height="1"/>
<path class="st3" d="M60.6,52l-4.9,13.4h-1.8L49,52h1.8l3.7,10.6c0.1,0.4,0.2,0.8,0.3,1.2l0,0c0.1-0.4,0.2-0.8,0.3-1.2L58.9,52H60.6
	z"/>
<path class="st3" d="M63.1,53.4c-0.3,0-0.5-0.1-0.7-0.3c-0.4-0.4-0.4-1,0-1.4c0.2-0.2,0.5-0.3,0.7-0.3c0.3,0,0.5,0.1,0.7,0.3
	s0.3,0.4,0.3,0.7s-0.1,0.5-0.3,0.7C63.6,53.3,63.3,53.4,63.1,53.4z M63.8,65.4h-1.5v-9.6h1.5V65.4z"/>
<path class="st3" d="M74.6,61h-6.8c0,0.9,0.3,1.8,0.9,2.5c0.6,0.6,1.4,0.9,2.3,0.9c1.1,0,2.2-0.4,3-1.1v1.4c-1,0.7-2.2,1-3.3,0.9
	c-1.2,0.1-2.4-0.4-3.2-1.3c-1.6-2.2-1.5-5.2,0.1-7.3c0.8-0.9,1.9-1.4,3.1-1.5c1.1-0.1,2.2,0.4,3,1.2c0.7,1,1.1,2.2,1,3.4L74.6,61
	L74.6,61z M73.1,59.7c0-0.7-0.2-1.5-0.6-2.1c-0.4-0.5-1.1-0.8-1.8-0.8c-0.7,0-1.4,0.3-1.8,0.8c-0.5,0.5-0.9,1.2-0.9,2L73.1,59.7z"/>
<path class="st3" d="M89,55.8l-2.9,9.6h-1.6l-2-6.9c-0.1-0.3-0.1-0.6-0.2-0.9l0,0c0,0.3-0.1,0.6-0.2,0.9L80,65.4h-1.5l-2.9-9.6h1.6
	l2,7.2c0.1,0.3,0.1,0.6,0.1,0.9h0.1c0-0.3,0.1-0.6,0.2-0.9l2.2-7.2h1.4l2,7.2c0.1,0.3,0.1,0.6,0.1,0.9h0.1c0-0.3,0-0.6,0.1-0.9
	l1.9-7.2L89,55.8z"/>
<path class="st5" d="M260.3,69.4v-24c0-0.3,0.1-0.5,0.2-0.8c0.1-0.2,0.2-0.5,0.4-0.7c0.2-0.2,0.4-0.3,0.6-0.4
	c0.2-0.1,0.5-0.2,0.8-0.2H364c0.3,0,0.5,0,0.8,0.2c0.5,0.2,0.9,0.6,1.1,1.1c0.1,0.2,0.1,0.5,0.1,0.8v23.9c0,0.3,0,0.5-0.1,0.8
	c-0.2,0.5-0.6,0.9-1.1,1.1c-0.2,0.1-0.5,0.2-0.8,0.2H262.3c-0.3,0-0.5,0-0.8-0.2c-0.2-0.1-0.5-0.3-0.6-0.4
	C260.5,70.4,260.3,69.9,260.3,69.4z"/>
<path class="st2" d="M293.2,65.4h-1.5V52h1.6L293.2,65.4z"/>
<path class="st2" d="M304.5,65.4H303v-5.5c0-2-0.7-3-2.2-3c-0.7,0-1.4,0.3-1.9,0.9c-0.5,0.6-0.8,1.4-0.8,2.2v5.5h-1.5v-9.6h1.5v1.6
	l0,0c0.6-1.2,1.8-1.9,3.1-1.8c0.9-0.1,1.8,0.3,2.4,1c0.6,0.8,0.9,1.9,0.8,2.9L304.5,65.4z"/>
<path class="st2" d="M314.9,55.8l-3.8,9.6h-1.5l-3.6-9.6h1.7l2.4,7c0.2,0.4,0.3,0.9,0.3,1.3l0,0c0.1-0.4,0.2-0.9,0.3-1.3l2.5-7
	L314.9,55.8z"/>
<path class="st2" d="M317.3,53.4c-0.3,0-0.5-0.1-0.7-0.3c-0.4-0.4-0.4-1,0-1.4l0,0c0.2-0.2,0.4-0.3,0.7-0.3c0.3,0,0.5,0.1,0.7,0.3
	s0.3,0.4,0.3,0.7s-0.1,0.5-0.3,0.7C317.8,53.3,317.6,53.4,317.3,53.4z M318.1,65.4h-1.5v-9.6h1.5V65.4z"/>
<path class="st2" d="M325.6,65.3c-0.4,0.2-0.9,0.3-1.4,0.3c-1.7,0-2.5-0.9-2.5-2.8v-5.7H320v-1.3h1.6v-2.3l1.5-0.5v2.8h2.5v1.3h-2.4
	v5.4c0,0.5,0.1,1,0.3,1.4c0.3,0.3,0.7,0.4,1.1,0.4s0.7-0.1,1-0.3V65.3z"/>
<path class="st2" d="M335.3,61h-6.8c0,0.9,0.3,1.8,0.9,2.5c0.6,0.6,1.4,0.9,2.3,0.9c1.1,0,2.2-0.4,3-1.1v1.4c-1,0.7-2.2,1-3.3,0.9
	c-1.2,0.1-2.4-0.4-3.2-1.3c-0.8-1-1.2-2.3-1.2-3.7c-0.1-1.3,0.4-2.6,1.3-3.7c0.8-0.9,1.9-1.4,3.1-1.4c1.1-0.1,2.2,0.4,2.9,1.2
	c0.7,1,1.1,2.2,1,3.4L335.3,61z M333.8,59.7c0-0.7-0.2-1.5-0.6-2.1c-0.4-0.5-1.1-0.8-1.8-0.7c-0.7,0-1.4,0.3-1.9,0.8
	c-0.5,0.6-0.8,1.3-0.9,2H333.8z"/>
<g>
	<g>
		<g>
			<g>
				<path class="st6" d="M-1.3-0.5c-0.5,3,23.3,2.5,23,4.1c-0.2,0.9,81.1,20.1,80.8,21.8c-0.2,1.1,46.6,6.3,46.3,8.2
					c-1.6,8.8,219.1,27.1,214.5,53c-0.1,0.5,13-0.4,12.6,2.2c0,0.2-8.8-2.6-9.1-1.4c-0.3,1.8,27.6,2,27.1,4.8"/>
			</g>
			<g>
				<path class="st6" d="M380.1-0.9c-0.1,0.5,4.5,0.5,4.4,0.8c0,0.2-18.6,3.9-18.7,4.3c0,0.1,1.4,0,1.4,0.2
					c-0.3,1.7-40.2,3-41.1,7.9c0,0.2,7.5,0.5,7.4,1.3c-0.2,1.3-70.6,5.8-72.4,15.6c-0.1,0.6,12.6,1.3,12.4,2.2
					c-0.6,3.6-79.8,11.4-79.9,12c0,0.1,7.6,0.3,7.4,1.3c-0.9,5-33.6,6.8-33.6,7.1c-0.1,0.5,10.7,1.6,10.6,1.9
					c-0.1,0.6-51.2,3.5-51.7,5.8c-0.1,0.7,8.4,0.7,8.3,1.5c-0.1,0.8-16.8,1.2-17.1,2.9c0,0.2,7.7,0.3,7.5,1.3
					c-0.9,5.1-63.1,2.6-63.8,6.8c-0.1,0.8,15.3,2.1,15.2,2.7c-0.9,4.9-42.1,2-43.2,8.1c-0.2,0.9,4.6-0.1,4.4,0.8
					c-0.1,0.4-30.1,8-30.1,8.2c0,0.2,3.7,0.5,3.7,0.7"/>
			</g>
		</g>
	</g>
</g>
</svg>
